<?xml version="1.0" encoding="UTF-8" standalone="no"?>
<svg
   xmlns:dc="http://purl.org/dc/elements/1.1/"
   xmlns:cc="http://creativecommons.org/ns#"
   xmlns:rdf="http://www.w3.org/1999/02/22-rdf-syntax-ns#"
   xmlns:svg="http://www.w3.org/2000/svg"
   xmlns="http://www.w3.org/2000/svg"
   xmlns:sodipodi="http://sodipodi.sourceforge.net/DTD/sodipodi-0.dtd"
   xmlns:inkscape="http://www.inkscape.org/namespaces/inkscape"
   width="48"
   height="48"
   version="1.1"
   id="svg37"
   sodipodi:docname="applications-games.svg"
   inkscape:version="0.92.3 (2405546, 2018-03-11)">
  <metadata
     id="metadata41">
    <rdf:RDF>
      <cc:Work
         rdf:about="">
        <dc:format>image/svg+xml</dc:format>
        <dc:type
           rdf:resource="http://purl.org/dc/dcmitype/StillImage" />
      </cc:Work>
    </rdf:RDF>
  </metadata>
  <sodipodi:namedview
     pagecolor="#ffffff"
     bordercolor="#666666"
     borderopacity="1"
     objecttolerance="10"
     gridtolerance="10"
     guidetolerance="10"
     inkscape:pageopacity="0"
     inkscape:pageshadow="2"
     inkscape:window-width="686"
     inkscape:window-height="480"
     id="namedview39"
     showgrid="false"
     inkscape:zoom="4.9166667"
     inkscape:cx="20.440678"
     inkscape:cy="24"
     inkscape:window-x="0"
     inkscape:window-y="0"
     inkscape:window-maximized="0"
     inkscape:current-layer="svg37" />
  <defs
     id="defs17">
    <filter
       id="a">
      <feGaussianBlur
         in="SourceAlpha"
         stdDeviation=".8"
         id="feGaussianBlur2" />
      <feOffset
         dy=".4"
         id="feOffset4" />
      <feComponentTransfer
         id="feComponentTransfer8">
        <feFuncA
           slope=".3"
           type="linear"
           id="feFuncA6" />
      </feComponentTransfer>
      <feMerge
         id="feMerge14">
        <feMergeNode
           id="feMergeNode10" />
        <feMergeNode
           in="SourceGraphic"
           id="feMergeNode12" />
      </feMerge>
    </filter>
  </defs>
  <g
     fill-rule="evenodd"
     id="g35">
    <path
       fill="#cfd8dc"
       d="M10-24a4 4 0 0 0-3.945 3.342l-4 24c-.638 3.837 4.021 6.235 6.773 3.486L17.656-2h12.688l8.828 8.828c2.752 2.75 7.411.351 6.773-3.486l-4-24A4 4 0 0 0 38-24z"
       filter="url(#a)"
       transform="translate(0 32)"
       id="path19"
       style="fill:#78dfdc;fill-opacity:1" />
    <path
       opacity=".1"
       d="M31.979 11.98c-1.794.003-2.679 2.183-1.393 3.434L45.03 29.86l-1.13-6.787-10.487-10.486a2 2 0 0 0-1.435-.606zM15.97 12A2 2 0 0 0 14 14v2h-2c-1.781 0-2.673 2.154-1.414 3.414L21.172 30h9.172l8.828 8.828c1.491 1.49 3.537 1.46 5.002.518l-26.76-26.76A2 2 0 0 0 15.971 12zm12.008 3.98c-1.794.003-2.679 2.183-1.393 3.434l18.77 18.77a3.895 3.895 0 0 0 .59-2.842l-.446-2.67-16.086-16.086a2 2 0 0 0-1.435-.606z"
       id="path21" />
    <g
       filter="url(#a)"
       transform="translate(0 32)"
       id="g33">
      <path
         fill="#646464"
         d="M15.97-20.027A2 2 0 0 0 14-18v2h-2a2 2 0 1 0 0 4h2v2a2 2 0 1 0 4 0v-2h2a2 2 0 1 0 0-4h-2v-2a2 2 0 0 0-2.03-2.027z"
         id="path23" />
      <circle
         fill="#71F9A0"
         cx="32"
         cy="-18"
         r="2"
         id="circle25" />
      <circle
         fill="#4396FC"
         cx="36"
         cy="-14"
         r="2"
         id="circle27" />
      <circle
         fill="#BC72FA"
         cx="32"
         cy="-10"
         r="2"
         id="circle29" />
      <circle
         fill="#4caf50"
         cx="28"
         cy="-14"
         r="2"
         id="circle31" />
    </g>
  </g>
</svg>
