<?xml version="1.0" encoding="UTF-8" standalone="no"?>
<svg
   xmlns:dc="http://purl.org/dc/elements/1.1/"
   xmlns:cc="http://creativecommons.org/ns#"
   xmlns:rdf="http://www.w3.org/1999/02/22-rdf-syntax-ns#"
   xmlns:svg="http://www.w3.org/2000/svg"
   xmlns="http://www.w3.org/2000/svg"
   xmlns:sodipodi="http://sodipodi.sourceforge.net/DTD/sodipodi-0.dtd"
   xmlns:inkscape="http://www.inkscape.org/namespaces/inkscape"
   width="16"
   height="16"
   version="1.1"
   id="svg4"
   sodipodi:docname="emblem-system-symbolic.svg"
   inkscape:version="0.92.3 (2405546, 2018-03-11)">
  <metadata
     id="metadata10">
    <rdf:RDF>
      <cc:Work
         rdf:about="">
        <dc:format>image/svg+xml</dc:format>
        <dc:type
           rdf:resource="http://purl.org/dc/dcmitype/StillImage" />
      </cc:Work>
    </rdf:RDF>
  </metadata>
  <defs
     id="defs8" />
  <sodipodi:namedview
     pagecolor="#ffffff"
     bordercolor="#666666"
     borderopacity="1"
     objecttolerance="10"
     gridtolerance="10"
     guidetolerance="10"
     inkscape:pageopacity="0"
     inkscape:pageshadow="2"
     inkscape:window-width="640"
     inkscape:window-height="480"
     id="namedview6"
     showgrid="false"
     inkscape:zoom="14.75"
     inkscape:cx="6.8135593"
     inkscape:cy="8"
     inkscape:window-x="0"
     inkscape:window-y="0"
     inkscape:window-maximized="0"
     inkscape:current-layer="svg4" />
  <path
     fill-rule="evenodd"
     d="M7 0a1 1 0 0 0-1 1v1.354a6.027 6.027 0 0 0-1.885 1.093l-1.178-.68a1 1 0 0 0-.476-.132 1 1 0 0 0-.889.5l-1 1.73a1 1 0 0 0 .366 1.367l1.167.674C2.04 7.262 2 7.626 2 8c0 .373.039.738.105 1.094l-1.167.674a1 1 0 0 0-.366 1.367l1 1.73a1 1 0 0 0 1.365.367l1.178-.68c.552.473 1.19.845 1.885 1.094V15a1 1 0 0 0 1 1h2a1 1 0 0 0 1-1v-1.354a6.027 6.027 0 0 0 1.885-1.093l1.178.68a1 1 0 0 0 1.365-.368l1-1.73a1 1 0 0 0-.366-1.367l-1.167-.674C13.96 8.738 14 8.374 14 8c0-.373-.039-.738-.105-1.094l1.168-.674a1 1 0 0 0 .365-1.367l-1-1.73a1 1 0 0 0-.918-.5 1 1 0 0 0-.447.133l-1.178.68A6.027 6.027 0 0 0 10 2.353V1a1 1 0 0 0-1-1H7zm1 6c1.128 0 2 .872 2 2 0 1.128-.872 2-2 2-1.128 0-2-.872-2-2 0-1.128.872-2 2-2z"
     id="path2"
     style="fill:#4d4d4d" />
</svg>
